PathFileType	4	(X/Y/Z)	C:/Users/beibeiliu/ov580/test_trc\sequence.32_training_dense_left.trc
DataRate	CameraRate	NumFrames	NumMarkers	Units	OrigDataRate	OrigDataStartFrame	OrigNumFrames
120	120	16	19	mm	120	117	310
Frame#	Time	ThumbCMC			ThumbMCP			ThumbIP			ThumbTip			IndexMCP			IndexPIP			IndexTip			MiddleMCP			MiddlePIP			MiddleTip			RingMCP			RingPIP			RingTip			PinkyMCP			PinkyPIP			PinkyTip			BackHand1			BackHand2			BackHand3	
		X0	Y0	Z0	X1	Y1	Z1	X2	Y2	Z2	X3	Y3	Z3	X4	Y4	Z4	X5	Y5	Z5	X6	Y6	Z6	X7	Y7	Z7	X8	Y8	Z8	X9	Y9	Z9	X10	Y10	Z10	X11	Y11	Z11	X12	Y12	Z12	X13	Y13	Z13	X14	Y14	Z14	X15	Y15	Z15	X16	Y16	Z16	X17	Y17	Z17	X18	Y18	Z18	
116	0.966667	-167.161	26.4402	16.9328	-155.911	18.0971	-14.0515	-150.879	13.5915	-32.8643	-156.117	7.15786	-55.5655	-187.724	43.4541	-43.0107	-181.794	25.7578	-63.5863	-170.007	-0.583436	-54.3423	-215.142	43.639	-42.2431	-213.906	42.5744	-72.2098	-211.721	26.4159	-94.6716	-230.739	33.3827	-29.6529	-237.713	40.2649	-55.2187	-243.089	39.0611	-75.3981	-241.096	16.7445	-17.4145	-254.613	16.4045	-26.9465	-269.221	20.6157	-40.8381	-218.589	30.9792	9.23978	-218.48	25.3034	34.1376	-195.393	42.8322	20.6508	
117	0.975	-165.546	26.2918	16.721	-151.984	18.7226	-13.1136	-150.767	14.8477	-31.5969	-153.158	8.49092	-53.3367	-188.41	42.7498	-45.7522	-177.743	24.015	-63.3418	-169.77	-1.43819	-52.4442	-214.97	43.3437	-41.9876	-217.002	40.2277	-69.6113	-213.014	26.4345	-92.7342	-228.318	34.6967	-31.5209	-235.84	39.288	-51.2733	-241.803	38.1065	-76.296	-240.535	13.2047	-13.8698	-254.988	15.7428	-28.4865	-268.814	21.7243	-42.5003	-219.825	29.377	7.21178	-212.428	24.6951	36.1745	-198.845	40.6627	18.0761	
118	0.983333	-168.491	26.0671	15.3603	-154.033	18.9478	-12.8766	-152.919	15.4747	-33.0327	-147.657	8.42114	-54.7572	-185.781	44.393	-44.6908	-176.765	23.6209	-63.5081	-169.947	-0.352738	-53.4105	-212.424	43.5889	-41.9959	-213.422	42.1584	-69.0939	-210.295	25.6656	-94.1414	-232.946	33.3441	-32.747	-239.132	37.2559	-51.6677	-242.888	38.0108	-77.5357	-240.224	13.0458	-14.6468	-253.36	15.1426	-26.7293	-266.193	21.5453	-42.8953	-221.275	27.3386	10.9401	-215.327	23.5507	36.4527	-194.275	40.4581	21.0882	
119	0.991667	-168.633	25.9666	15.4717	-151.912	19.6779	-11.2581	-148.858	15.9919	-33.4357	-148.921	7.98468	-54.0478	-185.102	44.1135	-40.9825	-177.422	26.2062	-62.8012	-168.176	-1.49867	-53.2626	-215.23	42.4393	-42.986	-214.628	39.2329	-72.6144	-208.797	23.8998	-96.4286	-231.445	33.2618	-30.7959	-236.473	38.4915	-53.0471	-242.108	36.3944	-73.9901	-240.137	13.3908	-15.6747	-253.886	14.1664	-28.5764	-265.023	20.1165	-45.8011	-222.18	28.0824	8.22248	-217.25	22.7075	34.4463	-198.4	39.4655	22.1874	
120	1	-165.37	26.8453	18.281	-155.088	17.625	-6.27669	-150.562	13.705	-30.3607	-147.894	7.96406	-48.3479	-187.202	42.0735	-44.5594	-179.44	24.9692	-61.8283	-166.467	-0.552611	-55.8974	-214.754	39.9352	-39.548	-213.582	38.4547	-70.7702	-209.662	23.9373	-92.017	-227.318	31.1063	-27.2768	-236.052	35.8353	-50.1462	-242.314	34.5813	-76.4524	-239.611	13.8273	-17.7147	-253.116	16.0241	-32.0194	-263.649	17.8939	-41.0776	-221.188	24.7187	12.5768	-216.456	20.8827	35.7542	-195.443	41.3377	18.06	
121	1.00833	-164.479	26.8569	17.0222	-153.106	16.4227	-5.28699	-148.364	13.6824	-29.4109	-147.438	6.01849	-53.9085	-189.105	39.9705	-43.7801	-180.241	23.6744	-61.992	-169.362	-4.71171	-53.5764	-215.285	40.0122	-44.366	-212.928	39.9223	-67.9724	-211.661	23.4266	-92.1361	-231.727	27.3839	-28.2294	-240.413	32.3233	-51.5526	-242.584	32.0191	-74.7026	-239.148	9.74813	-13.6289	-252.993	11.7276	-27.6096	-265.095	13.8993	-41.7347	-219.779	24.7951	8.73816	-216.092	19.8345	37.3869	-197.392	40.1437	20.934	
122	1.01667	-168.808	24.2382	18.8339	-154.879	16.9636	-8.16242	-146.363	12.7729	-32.4774	-147.384	5.12556	-53.1158	-188.949	39.7657	-45.8659	-180.336	24.173	-62.1521	-166.869	-0.119115	-56.9744	-216.418	39.1374	-42.7976	-214.898	37.4761	-70.0545	-207.656	22.7206	-94.7918	-233.485	27.4602	-30.2795	-241.666	31.8478	-52.9403	-243.242	29.7917	-73.6528	-243.472	9.20425	-16.3933	-252.466	10.8816	-28.3238	-263.249	14.67	-45.5542	-222.984	22.5155	7.57051	-217.451	21.1908	36.7918	-196.264	39.201	19.9286	
123	1.025	-165.563	26.545	15.1766	-153.662	17.0036	-11.1475	-149.959	11.9044	-32.3797	-145.346	3.42108	-50.8955	-187.053	40.5901	-43.3065	-179.988	19.6243	-64.0344	-166.157	-4.94895	-53.6484	-215.3	38.8211	-43.1587	-218.148	33.8581	-70.6187	-208.648	21.6098	-93.8488	-229.32	27.1242	-27.7971	-240.877	30.6244	-53.1559	-241.436	29.3157	-77.0634	-238.591	8.02267	-14.3642	-252.514	10.8979	-30.7494	-266.066	11.2874	-42.0459	-221.666	20.8319	12.0943	-215.371	22.2133	33.8249	-199.883	36.9228	21.7521	
124	1.03333	-167.995	25.1042	15.5935	-157.179	14.7954	-8.76555	-148.36	11.605	-32.4566	-147.824	3.08252	-50.2129	-191.01	38.1338	-42.6214	-183.836	20.6945	-62.4945	-170.089	-4.97556	-55.4752	-214.652	38.8216	-41.4551	-218.637	33.1739	-71.2417	-210.427	20.4222	-93.4676	-232.157	25.3264	-27.3578	-239.512	31.2817	-50.3013	-239.477	29.5015	-77.8183	-240.767	5.45202	-13.0942	-254.277	9.42741	-30.8967	-267.403	11.6049	-45.0064	-220.404	23.9907	9.20942	-217.4	20.4997	37.6253	-198.184	35.602	21.6187	
125	1.04167	-168.098	25.4455	16.8114	-154.363	14.8171	-6.14301	-149.588	10.434	-29.2261	-149.736	3.69608	-50.0737	-190.419	39.4416	-40.776	-181.528	22.5367	-62.6603	-170.296	-5.28816	-55.7149	-216.831	38.7201	-44.2314	-219.23	33.1484	-70.1625	-212.413	17.4965	-93.6711	-234.084	25.6031	-27.699	-239.436	32.3413	-54.8982	-243.648	27.7774	-76.4013	-240.727	5.95896	-13.0701	-254.655	10.4679	-29.3161	-267.316	10.6698	-43.0335	-223.568	21.4849	10.4823	-218.316	21.2689	34.9646	-199.102	36.308	21.1213	
126	1.05	-168.529	24.0814	16.847	-158.502	14.5084	-5.49737	-151.413	11.6759	-32.6676	-152.193	4.05834	-51.691	-191.341	38.6104	-45.0801	-182.49	21.4181	-62.3248	-172.417	-7.54247	-53.7575	-218.822	36.2304	-38.2091	-218.432	37.1297	-66.3997	-212.866	22.2183	-91.2137	-236.975	26.6625	-30.291	-241.378	29.8138	-51.7558	-243.402	28.4878	-73.1806	-243.251	5.19136	-11.2664	-252.519	10.7865	-26.5667	-266.994	10.0127	-43.7844	-224.616	23.2946	9.73751	-217.082	17.5272	38.4971	-203.428	36.4925	19.9475	
127	1.05833	-169.857	24.8635	17.6282	-154.879	15.0309	-6.90893	-154.992	11.0735	-30.1691	-153.528	4.08332	-56.0167	-194.62	37.1703	-43.9075	-183.988	21.9162	-61.5103	-172.534	-7.01863	-53.6965	-217.728	39.1191	-42.6866	-219.903	34.5513	-68.8688	-214.641	19.0354	-93.1859	-235.639	26.8941	-28.8883	-243.525	28.8034	-49.9207	-243.034	30.0758	-76.5799	-244.318	4.77633	-11.5233	-257.345	6.63927	-25.225	-268.072	10.0772	-44.3488	-222.565	21.4747	14.2626	-219.962	20.0689	35.3638	-205.082	35.6753	19.5792	
128	1.06667	-170.788	24.812	17.9953	-156.546	15.6679	-7.31956	-154.871	11.7565	-31.7437	-153.131	4.11442	-51.6632	-195.924	38.3273	-40.9516	-184.789	20.2077	-61.8246	-170.531	-0.543272	-54.8847	-220.849	37.1009	-42.8241	-221.02	36.0128	-69.2461	-216.848	18.599	-91.581	-237.83	26.7567	-29.4754	-243.959	29.8166	-48.4323	-245.04	29.3632	-75.9269	-241.18	5.90967	-11.8284	-258.305	6.78564	-26.5491	-268.751	10.7201	-46.7889	-224.353	20.4539	11.3948	-220.477	18.3164	38.2599	-202.44	36.6551	23.1433	
129	1.075	-170.527	25.3365	16.8609	-158.392	15.1904	-8.49952	-155.538	12.0418	-34.5412	-155.398	4.55632	-49.8924	-193.215	40.4144	-40.1709	-182.653	19.7205	-62.1833	-170.511	-0.641817	-54.7674	-222.756	35.4781	-39.8681	-221.705	34.9938	-69.5518	-217.43	19.8583	-92.5167	-237.871	25.246	-29.2008	-246.13	29.1023	-50.1665	-247.221	28.2307	-74.256	-244.076	4.83965	-11.4739	-256.842	8.63763	-27.8159	-269.673	11.5497	-45.5646	-224.611	21.058	12.2177	-219.002	19.9325	37.0848	-201.668	37.3165	19.8692	
130	1.08333	-172.279	26.2413	14.5426	-158.297	17.6176	-11.8627	-154.927	11.8508	-34.0762	-153.134	4.95337	-53.7192	-193.552	41.0617	-40.5385	-185.715	21.1463	-62.984	-172.701	-3.79288	-53.4193	-220.994	38.3025	-41.0773	-223.84	35.7934	-67.9837	-217.867	21.4868	-91.2455	-237.462	23.5463	-25.2158	-244.291	31.5125	-53.3615	-247.654	28.8166	-76.7138	-244.231	6.82621	-14.859	-255.757	8.68784	-28.5594	-269.479	9.06154	-44.9248	-228.038	21.8145	9.35454	-219.809	17.2924	35.4848	-202.866	36.5775	22.4731	
131	1.09167	-174.084	24.9792	16.7475	-160.663	16.6749	-9.90101	-154.737	12.7337	-30.8733	-154.815	4.71295	-52.2391	-195.658	39.9953	-43.1502	-187.421	25.2194	-62.6471	-177.059	-1.36404	-57.2968	-223.848	38.5916	-42.0601	-224.917	35.412	-68.766	-220.233	18.7886	-93.2912	-238.729	24.0279	-27.8059	-248.788	28.4463	-51.6277	-251.113	25.6968	-72.9506	-242.88	7.59501	-15.0164	-257.853	6.1625	-28.7637	-273.134	7.41966	-45.6977	-228.363	19.0952	12.2125	-220.377	20.2391	36.3425	-205.005	35.4577	22.858	
